<?xml version="1.0" encoding="UTF-8" standalone="no"?>
<!DOCTYPE svg PUBLIC "-//W3C//DTD SVG 1.1//EN"
 "http://www.w3.org/Graphics/SVG/1.1/DTD/svg11.dtd">
<!-- Generated by graphviz version 14.1.2 (20260124.0452)
 -->
<!-- Title: ruby_modules Pages: 1 -->
<svg width="578pt" height="745pt"
 viewBox="0.00 0.00 578.00 745.00" xmlns="http://www.w3.org/2000/svg" xmlns:xlink="http://www.w3.org/1999/xlink">
<g id="graph0" class="graph" transform="scale(1 1) rotate(0) translate(4 740.66)">
<title>ruby_modules</title>
<polygon fill="white" stroke="none" points="-4,4 -4,-740.66 574.25,-740.66 574.25,4 -4,4"/>
<g id="clust1" class="cluster">
<title>cluster_Billing</title>
<path fill="#f1f5f9" stroke="#cbd5e1" d="M20,-234.35C20,-234.35 87.25,-234.35 87.25,-234.35 93.25,-234.35 99.25,-240.35 99.25,-246.35 99.25,-246.35 99.25,-461.35 99.25,-461.35 99.25,-467.35 93.25,-473.35 87.25,-473.35 87.25,-473.35 20,-473.35 20,-473.35 14,-473.35 8,-467.35 8,-461.35 8,-461.35 8,-246.35 8,-246.35 8,-240.35 14,-234.35 20,-234.35"/>
<text xml:space="preserve" text-anchor="middle" x="53.62" y="-456.05" font-family="Times,serif" font-size="14.00">Billing</text>
</g>
<!-- Billing::Customer -->
<g id="node1" class="node">
<title>Billing::Customer</title>
<path fill="#f8fafc" stroke="#94a3b8" d="M79.25,-440.35C79.25,-440.35 28,-440.35 28,-440.35 22,-440.35 16,-434.35 16,-428.35 16,-428.35 16,-416.35 16,-416.35 16,-410.35 22,-404.35 28,-404.35 28,-404.35 79.25,-404.35 79.25,-404.35 85.25,-404.35 91.25,-410.35 91.25,-416.35 91.25,-416.35 91.25,-428.35 91.25,-428.35 91.25,-434.35 85.25,-440.35 79.25,-440.35"/>
<text xml:space="preserve" text-anchor="middle" x="53.62" y="-416.55" font-family="Helvetica,sans-Serif" font-size="14.00">Customer</text>
</g>
<!-- Address -->
<g id="node5" class="node">
<title>Address</title>
<path fill="#f8fafc" stroke="#94a3b8" d="M377.25,-614.35C377.25,-614.35 335.75,-614.35 335.75,-614.35 329.75,-614.35 323.75,-608.35 323.75,-602.35 323.75,-602.35 323.75,-590.35 323.75,-590.35 323.75,-584.35 329.75,-578.35 335.75,-578.35 335.75,-578.35 377.25,-578.35 377.25,-578.35 383.25,-578.35 389.25,-584.35 389.25,-590.35 389.25,-590.35 389.25,-602.35 389.25,-602.35 389.25,-608.35 383.25,-614.35 377.25,-614.35"/>
<text xml:space="preserve" text-anchor="middle" x="356.5" y="-590.55" font-family="Helvetica,sans-Serif" font-size="14.00">Address</text>
</g>
<!-- Billing::Customer&#45;&gt;Address -->
<g id="edge4" class="edge">
<title>Billing::Customer&#45;&gt;Address</title>
<path fill="none" stroke="#64748b" d="M56.27,-440.84C60,-470.84 71.93,-529.76 109.25,-559.35 168.74,-606.5 262.49,-606.37 315.5,-601.64"/>
<polygon fill="#64748b" stroke="#64748b" points="315.41,-604.11 322.14,-601 314.93,-599.24 315.41,-604.11"/>
<text xml:space="preserve" text-anchor="middle" x="192.5" y="-605.36" font-family="Helvetica,sans-Serif" font-size="14.00">has_one</text>
</g>
<!-- ApplicationRecord -->
<g id="node6" class="node">
<title>ApplicationRecord</title>
<path fill="#f8fafc" stroke="#94a3b8" d="M407.25,-271.35C407.25,-271.35 305.75,-271.35 305.75,-271.35 299.75,-271.35 293.75,-265.35 293.75,-259.35 293.75,-259.35 293.75,-247.35 293.75,-247.35 293.75,-241.35 299.75,-235.35 305.75,-235.35 305.75,-235.35 407.25,-235.35 407.25,-235.35 413.25,-235.35 419.25,-241.35 419.25,-247.35 419.25,-247.35 419.25,-259.35 419.25,-259.35 419.25,-265.35 413.25,-271.35 407.25,-271.35"/>
<text xml:space="preserve" text-anchor="middle" x="356.5" y="-247.55" font-family="Helvetica,sans-Serif" font-size="14.00">ApplicationRecord</text>
</g>
<!-- Billing::Customer&#45;&gt;ApplicationRecord -->
<g id="edge1" class="edge">
<title>Billing::Customer&#45;&gt;ApplicationRecord</title>
<path fill="none" stroke="#0f172a" stroke-width="2" d="M90.98,-404.13C94.1,-401.51 96.93,-398.59 99.25,-395.35 111.41,-378.32 93.73,-363.38 109.25,-349.35 164.49,-299.39 214.23,-372.32 275.75,-330.35 289.87,-320.71 282.42,-309.15 293.75,-296.35 299.86,-289.45 307.28,-283.09 314.84,-277.5"/>
<polygon fill="#0f172a" stroke="#0f172a" stroke-width="2" points="316.24,-279.51 320.55,-273.48 313.42,-275.5 316.24,-279.51"/>
<text xml:space="preserve" text-anchor="middle" x="192.5" y="-351.05" font-family="Helvetica,sans-Serif" font-size="14.00">inherits</text>
</g>
<!-- Auditable -->
<g id="node7" class="node">
<title>Auditable</title>
<path fill="#f8fafc" stroke="#94a3b8" d="M558.25,-404.35C558.25,-404.35 510,-404.35 510,-404.35 504,-404.35 498,-398.35 498,-392.35 498,-392.35 498,-380.35 498,-380.35 498,-374.35 504,-368.35 510,-368.35 510,-368.35 558.25,-368.35 558.25,-368.35 564.25,-368.35 570.25,-374.35 570.25,-380.35 570.25,-380.35 570.25,-392.35 570.25,-392.35 570.25,-398.35 564.25,-404.35 558.25,-404.35"/>
<text xml:space="preserve" text-anchor="middle" x="534.12" y="-380.55" font-family="Helvetica,sans-Serif" font-size="14.00">Auditable</text>
</g>
<!-- Billing::Customer&#45;&gt;Auditable -->
<g id="edge2" class="edge">
<title>Billing::Customer&#45;&gt;Auditable</title>
<path fill="none" stroke="#1d4ed8" d="M59.42,-440.57C66.33,-462.72 81.43,-499.12 109.25,-515.35 168.76,-550.05 356.61,-547.03 419.25,-518.35 466.89,-496.53 502.17,-443.85 520.03,-412.03"/>
<polygon fill="#1d4ed8" stroke="#1d4ed8" points="522.04,-413.45 523.25,-406.14 517.74,-411.1 522.04,-413.45"/>
<text xml:space="preserve" text-anchor="middle" x="356.5" y="-541.57" font-family="Helvetica,sans-Serif" font-size="14.00">include</text>
</g>
<!-- Invoice -->
<g id="node9" class="node">
<title>Invoice</title>
<path fill="#f8fafc" stroke="#94a3b8" d="M373.88,-509.35C373.88,-509.35 339.12,-509.35 339.12,-509.35 333.12,-509.35 327.12,-503.35 327.12,-497.35 327.12,-497.35 327.12,-485.35 327.12,-485.35 327.12,-479.35 333.12,-473.35 339.12,-473.35 339.12,-473.35 373.88,-473.35 373.88,-473.35 379.88,-473.35 385.88,-479.35 385.88,-485.35 385.88,-485.35 385.88,-497.35 385.88,-497.35 385.88,-503.35 379.88,-509.35 373.88,-509.35"/>
<text xml:space="preserve" text-anchor="middle" x="356.5" y="-485.55" font-family="Helvetica,sans-Serif" font-size="14.00">Invoice</text>
</g>
<!-- Billing::Customer&#45;&gt;Invoice -->
<g id="edge3" class="edge">
<title>Billing::Customer&#45;&gt;Invoice</title>
<path fill="none" stroke="#64748b" d="M70.41,-440.69C80.42,-450.99 94.27,-463.01 109.25,-469.35 178.77,-498.72 268.96,-498.12 318.63,-494.87"/>
<polygon fill="#64748b" stroke="#64748b" points="318.51,-497.33 325.32,-494.39 318.16,-492.44 318.51,-497.33"/>
<text xml:space="preserve" text-anchor="middle" x="192.5" y="-498.08" font-family="Helvetica,sans-Serif" font-size="14.00">has_many</text>
</g>
<!-- Tag -->
<g id="node11" class="node">
<title>Tag</title>
<path fill="#f8fafc" stroke="#94a3b8" d="M371.5,-722.35C371.5,-722.35 341.5,-722.35 341.5,-722.35 335.5,-722.35 329.5,-716.35 329.5,-710.35 329.5,-710.35 329.5,-698.35 329.5,-698.35 329.5,-692.35 335.5,-686.35 341.5,-686.35 341.5,-686.35 371.5,-686.35 371.5,-686.35 377.5,-686.35 383.5,-692.35 383.5,-698.35 383.5,-698.35 383.5,-710.35 383.5,-710.35 383.5,-716.35 377.5,-722.35 371.5,-722.35"/>
<text xml:space="preserve" text-anchor="middle" x="356.5" y="-698.55" font-family="Helvetica,sans-Serif" font-size="14.00">Tag</text>
</g>
<!-- Billing::Customer&#45;&gt;Tag -->
<g id="edge6" class="edge">
<title>Billing::Customer&#45;&gt;Tag</title>
<path fill="none" stroke="#64748b" d="M55.72,-440.63C59.35,-494.36 72.87,-650.02 109.25,-682.35 168.03,-734.57 268.79,-723.32 321.34,-712.69"/>
<polygon fill="#64748b" stroke="#64748b" points="321.53,-715.16 327.87,-711.31 320.52,-710.36 321.53,-715.16"/>
<text xml:space="preserve" text-anchor="middle" x="192.5" y="-723.36" font-family="Helvetica,sans-Serif" font-size="14.00">has_and_belongs_to_many</text>
</g>
<!-- Tenant -->
<g id="node12" class="node">
<title>Tenant</title>
<path fill="#f8fafc" stroke="#94a3b8" d="M372.75,-668.35C372.75,-668.35 340.25,-668.35 340.25,-668.35 334.25,-668.35 328.25,-662.35 328.25,-656.35 328.25,-656.35 328.25,-644.35 328.25,-644.35 328.25,-638.35 334.25,-632.35 340.25,-632.35 340.25,-632.35 372.75,-632.35 372.75,-632.35 378.75,-632.35 384.75,-638.35 384.75,-644.35 384.75,-644.35 384.75,-656.35 384.75,-656.35 384.75,-662.35 378.75,-668.35 372.75,-668.35"/>
<text xml:space="preserve" text-anchor="middle" x="356.5" y="-644.55" font-family="Helvetica,sans-Serif" font-size="14.00">Tenant</text>
</g>
<!-- Billing::Customer&#45;&gt;Tenant -->
<g id="edge5" class="edge">
<title>Billing::Customer&#45;&gt;Tenant</title>
<path fill="none" stroke="#64748b" d="M57.02,-440.79C63.24,-485.64 81.38,-598.45 109.25,-622.35 168.35,-673.01 266.91,-666.05 319.64,-657.61"/>
<polygon fill="#64748b" stroke="#64748b" points="320.02,-660.03 326.51,-656.44 319.2,-655.19 320.02,-660.03"/>
<text xml:space="preserve" text-anchor="middle" x="192.5" y="-665.22" font-family="Helvetica,sans-Serif" font-size="14.00">belongs_to</text>
</g>
<!-- Billing::Invoice -->
<g id="node2" class="node">
<title>Billing::Invoice</title>
<path fill="#f8fafc" stroke="#94a3b8" d="M71,-386.35C71,-386.35 36.25,-386.35 36.25,-386.35 30.25,-386.35 24.25,-380.35 24.25,-374.35 24.25,-374.35 24.25,-362.35 24.25,-362.35 24.25,-356.35 30.25,-350.35 36.25,-350.35 36.25,-350.35 71,-350.35 71,-350.35 77,-350.35 83,-356.35 83,-362.35 83,-362.35 83,-374.35 83,-374.35 83,-380.35 77,-386.35 71,-386.35"/>
<text xml:space="preserve" text-anchor="middle" x="53.62" y="-362.55" font-family="Helvetica,sans-Serif" font-size="14.00">Invoice</text>
</g>
<!-- Billing::Invoice&#45;&gt;ApplicationRecord -->
<g id="edge7" class="edge">
<title>Billing::Invoice&#45;&gt;ApplicationRecord</title>
<path fill="none" stroke="#0f172a" stroke-width="2" d="M83.43,-355.7C89.43,-351.87 95.17,-347.11 99.25,-341.35 111.84,-323.56 93.5,-308.41 109.25,-293.35 133.69,-269.97 219.93,-260.23 283.49,-256.19"/>
<polygon fill="#0f172a" stroke="#0f172a" stroke-width="2" points="283.62,-258.63 290.46,-255.77 283.32,-253.74 283.62,-258.63"/>
<text xml:space="preserve" text-anchor="middle" x="192.5" y="-295.05" font-family="Helvetica,sans-Serif" font-size="14.00">inherits</text>
</g>
<!-- Billing::Invoice&#45;&gt;Auditable -->
<g id="edge8" class="edge">
<title>Billing::Invoice&#45;&gt;Auditable</title>
<path fill="none" stroke="#1d4ed8" d="M81.84,-386.78C90.27,-391.5 99.82,-395.93 109.25,-398.35 180.93,-416.73 202,-404.45 275.75,-398.35 283.83,-397.68 285.68,-396.17 293.75,-395.35 361.86,-388.42 441.35,-386.68 489.43,-386.32"/>
<polygon fill="#1d4ed8" stroke="#1d4ed8" points="489.24,-388.77 496.23,-386.28 489.21,-383.87 489.24,-388.77"/>
<text xml:space="preserve" text-anchor="middle" x="356.5" y="-397.05" font-family="Helvetica,sans-Serif" font-size="14.00">include</text>
</g>
<!-- Discountable -->
<g id="node8" class="node">
<title>Discountable</title>
<path fill="#f8fafc" stroke="#94a3b8" d="M391.5,-455.35C391.5,-455.35 321.5,-455.35 321.5,-455.35 315.5,-455.35 309.5,-449.35 309.5,-443.35 309.5,-443.35 309.5,-431.35 309.5,-431.35 309.5,-425.35 315.5,-419.35 321.5,-419.35 321.5,-419.35 391.5,-419.35 391.5,-419.35 397.5,-419.35 403.5,-425.35 403.5,-431.35 403.5,-431.35 403.5,-443.35 403.5,-443.35 403.5,-449.35 397.5,-455.35 391.5,-455.35"/>
<text xml:space="preserve" text-anchor="middle" x="356.5" y="-431.55" font-family="Helvetica,sans-Serif" font-size="14.00">Discountable</text>
</g>
<!-- Billing::Invoice&#45;&gt;Discountable -->
<g id="edge9" class="edge">
<title>Billing::Invoice&#45;&gt;Discountable</title>
<path fill="none" stroke="#1d4ed8" d="M83.16,-381.19C89.17,-385.01 94.98,-389.72 99.25,-395.35 109.28,-408.58 96.15,-421.14 109.25,-431.35 137.98,-453.74 237.51,-448.99 300.9,-443.3"/>
<polygon fill="#1d4ed8" stroke="#1d4ed8" points="300.96,-445.75 307.7,-442.67 300.51,-440.88 300.96,-445.75"/>
<text xml:space="preserve" text-anchor="middle" x="192.5" y="-449.73" font-family="Helvetica,sans-Serif" font-size="14.00">include</text>
</g>
<!-- Searchable -->
<g id="node10" class="node">
<title>Searchable</title>
<path fill="#f8fafc" stroke="#94a3b8" d="M386.62,-117.35C386.62,-117.35 326.38,-117.35 326.38,-117.35 320.38,-117.35 314.38,-111.35 314.38,-105.35 314.38,-105.35 314.38,-93.35 314.38,-93.35 314.38,-87.35 320.38,-81.35 326.38,-81.35 326.38,-81.35 386.62,-81.35 386.62,-81.35 392.62,-81.35 398.62,-87.35 398.62,-93.35 398.62,-93.35 398.62,-105.35 398.62,-105.35 398.62,-111.35 392.62,-117.35 386.62,-117.35"/>
<text xml:space="preserve" text-anchor="middle" x="356.5" y="-93.55" font-family="Helvetica,sans-Serif" font-size="14.00">Searchable</text>
</g>
<!-- Billing::Invoice&#45;&gt;Searchable -->
<g id="edge11" class="edge">
<title>Billing::Invoice&#45;&gt;Searchable</title>
<path fill="none" stroke="#0f766e" stroke-dasharray="5,2" d="M83.06,-356.65C89.39,-352.72 95.36,-347.67 99.25,-341.35 114.76,-316.09 89.4,-230.36 109.25,-208.35 159.6,-152.5 217.84,-226.3 275.75,-178.35 292.98,-164.08 278.85,-148.03 293.75,-131.35 297.53,-127.11 302.01,-123.35 306.8,-120.04"/>
<polygon fill="#0f766e" stroke="#0f766e" points="308.1,-122.11 312.71,-116.3 305.49,-117.97 308.1,-122.11"/>
<text xml:space="preserve" text-anchor="middle" x="192.5" y="-210.05" font-family="Helvetica,sans-Serif" font-size="14.00">extend</text>
</g>
<!-- Tracked -->
<g id="node13" class="node">
<title>Tracked</title>
<path fill="#f8fafc" stroke="#94a3b8" d="M376.88,-341.35C376.88,-341.35 336.12,-341.35 336.12,-341.35 330.12,-341.35 324.12,-335.35 324.12,-329.35 324.12,-329.35 324.12,-317.35 324.12,-317.35 324.12,-311.35 330.12,-305.35 336.12,-305.35 336.12,-305.35 376.88,-305.35 376.88,-305.35 382.88,-305.35 388.88,-311.35 388.88,-317.35 388.88,-317.35 388.88,-329.35 388.88,-329.35 388.88,-335.35 382.88,-341.35 376.88,-341.35"/>
<text xml:space="preserve" text-anchor="middle" x="356.5" y="-317.55" font-family="Helvetica,sans-Serif" font-size="14.00">Tracked</text>
</g>
<!-- Billing::Invoice&#45;&gt;Tracked -->
<g id="edge10" class="edge">
<title>Billing::Invoice&#45;&gt;Tracked</title>
<path fill="none" stroke="#9333ea" d="M83.49,-372.94C126.29,-378.73 208.73,-385.95 275.75,-368.35 292.64,-363.91 309.72,-354.99 323.72,-346.26"/>
<polygon fill="#9333ea" stroke="#9333ea" points="324.91,-348.41 329.46,-342.55 322.25,-344.29 324.91,-348.41"/>
<text xml:space="preserve" text-anchor="middle" x="192.5" y="-381.14" font-family="Helvetica,sans-Serif" font-size="14.00">prepend</text>
</g>
<!-- Billing::LineItem -->
<g id="node3" class="node">
<title>Billing::LineItem</title>
<path fill="#f8fafc" stroke="#94a3b8" d="M75.88,-278.35C75.88,-278.35 31.38,-278.35 31.38,-278.35 25.38,-278.35 19.38,-272.35 19.38,-266.35 19.38,-266.35 19.38,-254.35 19.38,-254.35 19.38,-248.35 25.38,-242.35 31.38,-242.35 31.38,-242.35 75.88,-242.35 75.88,-242.35 81.88,-242.35 87.88,-248.35 87.88,-254.35 87.88,-254.35 87.88,-266.35 87.88,-266.35 87.88,-272.35 81.88,-278.35 75.88,-278.35"/>
<text xml:space="preserve" text-anchor="middle" x="53.62" y="-254.55" font-family="Helvetica,sans-Serif" font-size="14.00">LineItem</text>
</g>
<!-- Billing::LineItem&#45;&gt;ApplicationRecord -->
<g id="edge12" class="edge">
<title>Billing::LineItem&#45;&gt;ApplicationRecord</title>
<path fill="none" stroke="#0f172a" stroke-width="2" d="M58.91,-242.09C65.42,-219.03 80.22,-180.32 109.25,-163.35 173.14,-126 208.27,-132.98 275.75,-163.35 304.36,-176.22 326.87,-205 340.57,-226.57"/>
<polygon fill="#0f172a" stroke="#0f172a" stroke-width="2" points="338.41,-227.73 344.15,-232.43 342.59,-225.18 338.41,-227.73"/>
<text xml:space="preserve" text-anchor="middle" x="192.5" y="-165.05" font-family="Helvetica,sans-Serif" font-size="14.00">inherits</text>
</g>
<!-- Billing::LineItem&#45;&gt;Auditable -->
<g id="edge13" class="edge">
<title>Billing::LineItem&#45;&gt;Auditable</title>
<path fill="none" stroke="#1d4ed8" d="M57.08,-242.12C63.38,-198.38 81.58,-89.47 109.25,-67.35 216.91,18.75 306.34,21.73 419.25,-57.35 520.17,-128.02 532.57,-294.75 533.44,-359.75"/>
<polygon fill="#1d4ed8" stroke="#1d4ed8" points="530.99,-359.37 533.48,-366.35 535.89,-359.34 530.99,-359.37"/>
<text xml:space="preserve" text-anchor="middle" x="356.5" y="-59.05" font-family="Helvetica,sans-Serif" font-size="14.00">include</text>
</g>
<!-- Billing::LineItem&#45;&gt;Searchable -->
<g id="edge14" class="edge">
<title>Billing::LineItem&#45;&gt;Searchable</title>
<path fill="none" stroke="#0f766e" stroke-dasharray="5,2" d="M54.56,-242.05C55.56,-207.55 63.24,-133.4 109.25,-100.35 166.55,-59.18 252.31,-70.68 306.02,-84.04"/>
<polygon fill="#0f766e" stroke="#0f766e" points="305.17,-86.35 312.56,-85.73 306.4,-81.61 305.17,-86.35"/>
<text xml:space="preserve" text-anchor="middle" x="192.5" y="-102.05" font-family="Helvetica,sans-Serif" font-size="14.00">extend</text>
</g>
<!-- Billing::Payment -->
<g id="node4" class="node">
<title>Billing::Payment</title>
<path fill="#f8fafc" stroke="#94a3b8" d="M76.62,-332.35C76.62,-332.35 30.63,-332.35 30.63,-332.35 24.63,-332.35 18.62,-326.35 18.62,-320.35 18.62,-320.35 18.62,-308.35 18.62,-308.35 18.62,-302.35 24.62,-296.35 30.62,-296.35 30.62,-296.35 76.62,-296.35 76.62,-296.35 82.62,-296.35 88.62,-302.35 88.62,-308.35 88.62,-308.35 88.62,-320.35 88.62,-320.35 88.62,-326.35 82.62,-332.35 76.62,-332.35"/>
<text xml:space="preserve" text-anchor="middle" x="53.62" y="-308.55" font-family="Helvetica,sans-Serif" font-size="14.00">Payment</text>
</g>
<!-- Billing::Payment&#45;&gt;ApplicationRecord -->
<g id="edge15" class="edge">
<title>Billing::Payment&#45;&gt;ApplicationRecord</title>
<path fill="none" stroke="#0f172a" stroke-width="2" d="M88.85,-297.9C92.81,-294.84 96.42,-291.34 99.25,-287.35 111.84,-269.56 92.34,-253.09 109.25,-239.35 135.16,-218.27 220.93,-228.08 283.98,-238.96"/>
<polygon fill="#0f172a" stroke="#0f172a" stroke-width="2" points="283.2,-241.31 290.52,-240.11 284.06,-236.48 283.2,-241.31"/>
<text xml:space="preserve" text-anchor="middle" x="192.5" y="-241.05" font-family="Helvetica,sans-Serif" font-size="14.00">inherits</text>
</g>
<!-- Billing::Payment&#45;&gt;Auditable -->
<g id="edge16" class="edge">
<title>Billing::Payment&#45;&gt;Auditable</title>
<path fill="none" stroke="#1d4ed8" d="M88.94,-298.58C92.99,-295.4 96.61,-291.67 99.25,-287.35 115.96,-259.97 85.8,-165.23 109.25,-143.35 163.36,-92.86 203.55,-127.11 275.75,-143.35 344.61,-158.83 366.11,-164.9 419.25,-211.35 468.3,-254.21 504.6,-323.14 521.88,-360.41"/>
<polygon fill="#1d4ed8" stroke="#1d4ed8" points="519.52,-361.13 524.65,-366.48 523.98,-359.1 519.52,-361.13"/>
<text xml:space="preserve" text-anchor="middle" x="356.5" y="-213.05" font-family="Helvetica,sans-Serif" font-size="14.00">include</text>
</g>
<!-- Billing::Payment&#45;&gt;Tracked -->
<g id="edge17" class="edge">
<title>Billing::Payment&#45;&gt;Tracked</title>
<path fill="none" stroke="#9333ea" d="M88.75,-313.49C132.21,-312.63 209.62,-311.89 275.75,-315.35 288.74,-316.02 302.89,-317.28 315.61,-318.59"/>
<polygon fill="#9333ea" stroke="#9333ea" points="315.01,-320.99 322.23,-319.3 315.53,-316.12 315.01,-320.99"/>
<text xml:space="preserve" text-anchor="middle" x="192.5" y="-317.05" font-family="Helvetica,sans-Serif" font-size="14.00">prepend</text>
</g>
<!-- Discountable&#45;&gt;Auditable -->
<g id="edge18" class="edge">
<title>Discountable&#45;&gt;Auditable</title>
<path fill="none" stroke="#1d4ed8" d="M403.64,-423.95C430.26,-416.22 463.53,-406.56 489.68,-398.96"/>
<polygon fill="#1d4ed8" stroke="#1d4ed8" points="490.06,-401.4 496.09,-397.1 488.69,-396.7 490.06,-401.4"/>
<text xml:space="preserve" text-anchor="middle" x="458.62" y="-415.07" font-family="Helvetica,sans-Serif" font-size="14.00">include</text>
</g>
</g>
</svg>
