<?xml version="1.0" encoding="UTF-8" standalone="no"?>
<!DOCTYPE svg PUBLIC "-//W3C//DTD SVG 1.1//EN"
 "http://www.w3.org/Graphics/SVG/1.1/DTD/svg11.dtd">
<!-- Generated by graphviz version 14.1.2 (20260124.0452)
 -->
<!-- Title: ruby_modules Pages: 1 -->
<svg width="729pt" height="570pt"
 viewBox="0.00 0.00 729.00 570.00" xmlns="http://www.w3.org/2000/svg" xmlns:xlink="http://www.w3.org/1999/xlink">
<g id="graph0" class="graph" transform="scale(1 1) rotate(0) translate(4 565.92)">
<title>ruby_modules</title>
<polygon fill="white" stroke="none" points="-4,4 -4,-565.92 725.25,-565.92 725.25,4 -4,4"/>
<g id="clust1" class="cluster">
<title>cluster_Billing</title>
<path fill="#f1f5f9" stroke="#cbd5e1" d="M20,-200.51C20,-200.51 355.25,-200.51 355.25,-200.51 361.25,-200.51 367.25,-206.51 367.25,-212.51 367.25,-212.51 367.25,-427.51 367.25,-427.51 367.25,-433.51 361.25,-439.51 355.25,-439.51 355.25,-439.51 20,-439.51 20,-439.51 14,-439.51 8,-433.51 8,-427.51 8,-427.51 8,-212.51 8,-212.51 8,-206.51 14,-200.51 20,-200.51"/>
<text xml:space="preserve" text-anchor="middle" x="187.62" y="-422.21" font-family="Times,serif" font-size="14.00">Billing</text>
</g>
<!-- Billing::Address -->
<g id="node1" class="node">
<title>Billing::Address</title>
<path fill="#f8fafc" stroke="#94a3b8" d="M347.25,-244.51C347.25,-244.51 305.75,-244.51 305.75,-244.51 299.75,-244.51 293.75,-238.51 293.75,-232.51 293.75,-232.51 293.75,-220.51 293.75,-220.51 293.75,-214.51 299.75,-208.51 305.75,-208.51 305.75,-208.51 347.25,-208.51 347.25,-208.51 353.25,-208.51 359.25,-214.51 359.25,-220.51 359.25,-220.51 359.25,-232.51 359.25,-232.51 359.25,-238.51 353.25,-244.51 347.25,-244.51"/>
<text xml:space="preserve" text-anchor="middle" x="326.5" y="-220.71" font-family="Helvetica,sans-Serif" font-size="14.00">Address</text>
</g>
<!-- Billing::Customer -->
<g id="node2" class="node">
<title>Billing::Customer</title>
<path fill="#f8fafc" stroke="#94a3b8" d="M79.25,-352.51C79.25,-352.51 28,-352.51 28,-352.51 22,-352.51 16,-346.51 16,-340.51 16,-340.51 16,-328.51 16,-328.51 16,-322.51 22,-316.51 28,-316.51 28,-316.51 79.25,-316.51 79.25,-316.51 85.25,-316.51 91.25,-322.51 91.25,-328.51 91.25,-328.51 91.25,-340.51 91.25,-340.51 91.25,-346.51 85.25,-352.51 79.25,-352.51"/>
<text xml:space="preserve" text-anchor="middle" x="53.62" y="-328.71" font-family="Helvetica,sans-Serif" font-size="14.00">Customer</text>
</g>
<!-- Billing::Customer&#45;&gt;Billing::Address -->
<g id="edge4" class="edge">
<title>Billing::Customer&#45;&gt;Billing::Address</title>
<path fill="none" stroke="#64748b" d="M82.78,-316.17C85.86,-313.49 88.77,-310.59 91.25,-307.51 103.5,-292.34 93.94,-279.58 109.25,-267.51 159.96,-227.53 237.95,-222.47 285.11,-223.65"/>
<polygon fill="#64748b" stroke="#64748b" points="284.95,-226.09 292.03,-223.88 285.11,-221.19 284.95,-226.09"/>
<text xml:space="preserve" text-anchor="middle" x="192.5" y="-269.21" font-family="Helvetica,sans-Serif" font-size="14.00">has_one</text>
</g>
<!-- Billing::Invoice -->
<g id="node3" class="node">
<title>Billing::Invoice</title>
<path fill="#f8fafc" stroke="#94a3b8" d="M343.88,-298.51C343.88,-298.51 309.12,-298.51 309.12,-298.51 303.12,-298.51 297.12,-292.51 297.12,-286.51 297.12,-286.51 297.12,-274.51 297.12,-274.51 297.12,-268.51 303.12,-262.51 309.12,-262.51 309.12,-262.51 343.88,-262.51 343.88,-262.51 349.88,-262.51 355.88,-268.51 355.88,-274.51 355.88,-274.51 355.88,-286.51 355.88,-286.51 355.88,-292.51 349.88,-298.51 343.88,-298.51"/>
<text xml:space="preserve" text-anchor="middle" x="326.5" y="-274.71" font-family="Helvetica,sans-Serif" font-size="14.00">Invoice</text>
</g>
<!-- Billing::Customer&#45;&gt;Billing::Invoice -->
<g id="edge3" class="edge">
<title>Billing::Customer&#45;&gt;Billing::Invoice</title>
<path fill="none" stroke="#64748b" d="M91.68,-320.65C97.51,-318.76 103.51,-316.96 109.25,-315.51 171.3,-299.83 245.22,-289.64 288.59,-284.5"/>
<polygon fill="#64748b" stroke="#64748b" points="288.67,-286.96 295.34,-283.71 288.1,-282.09 288.67,-286.96"/>
<text xml:space="preserve" text-anchor="middle" x="192.5" y="-317.21" font-family="Helvetica,sans-Serif" font-size="14.00">has_many</text>
</g>
<!-- Billing::Tag -->
<g id="node6" class="node">
<title>Billing::Tag</title>
<path fill="#f8fafc" stroke="#94a3b8" d="M341.5,-352.51C341.5,-352.51 311.5,-352.51 311.5,-352.51 305.5,-352.51 299.5,-346.51 299.5,-340.51 299.5,-340.51 299.5,-328.51 299.5,-328.51 299.5,-322.51 305.5,-316.51 311.5,-316.51 311.5,-316.51 341.5,-316.51 341.5,-316.51 347.5,-316.51 353.5,-322.51 353.5,-328.51 353.5,-328.51 353.5,-340.51 353.5,-340.51 353.5,-346.51 347.5,-352.51 341.5,-352.51"/>
<text xml:space="preserve" text-anchor="middle" x="326.5" y="-328.71" font-family="Helvetica,sans-Serif" font-size="14.00">Tag</text>
</g>
<!-- Billing::Customer&#45;&gt;Billing::Tag -->
<g id="edge6" class="edge">
<title>Billing::Customer&#45;&gt;Billing::Tag</title>
<path fill="none" stroke="#64748b" d="M91.72,-334.51C144.18,-334.51 239.35,-334.51 290.59,-334.51"/>
<polygon fill="#64748b" stroke="#64748b" points="290.51,-336.96 297.51,-334.51 290.51,-332.06 290.51,-336.96"/>
<text xml:space="preserve" text-anchor="middle" x="192.5" y="-336.21" font-family="Helvetica,sans-Serif" font-size="14.00">has_and_belongs_to_many</text>
</g>
<!-- Billing::Tenant -->
<g id="node7" class="node">
<title>Billing::Tenant</title>
<path fill="#f8fafc" stroke="#94a3b8" d="M342.75,-406.51C342.75,-406.51 310.25,-406.51 310.25,-406.51 304.25,-406.51 298.25,-400.51 298.25,-394.51 298.25,-394.51 298.25,-382.51 298.25,-382.51 298.25,-376.51 304.25,-370.51 310.25,-370.51 310.25,-370.51 342.75,-370.51 342.75,-370.51 348.75,-370.51 354.75,-376.51 354.75,-382.51 354.75,-382.51 354.75,-394.51 354.75,-394.51 354.75,-400.51 348.75,-406.51 342.75,-406.51"/>
<text xml:space="preserve" text-anchor="middle" x="326.5" y="-382.71" font-family="Helvetica,sans-Serif" font-size="14.00">Tenant</text>
</g>
<!-- Billing::Customer&#45;&gt;Billing::Tenant -->
<g id="edge5" class="edge">
<title>Billing::Customer&#45;&gt;Billing::Tenant</title>
<path fill="none" stroke="#64748b" d="M91.68,-348.37C97.51,-350.27 103.51,-352.06 109.25,-353.51 171.82,-369.33 246.45,-379.56 289.67,-384.65"/>
<polygon fill="#64748b" stroke="#64748b" points="289.14,-387.06 296.37,-385.43 289.7,-382.19 289.14,-387.06"/>
<text xml:space="preserve" text-anchor="middle" x="192.5" y="-384.2" font-family="Helvetica,sans-Serif" font-size="14.00">belongs_to</text>
</g>
<!-- ApplicationRecord -->
<g id="node8" class="node">
<title>ApplicationRecord</title>
<path fill="#f8fafc" stroke="#94a3b8" d="M558.25,-485.51C558.25,-485.51 456.75,-485.51 456.75,-485.51 450.75,-485.51 444.75,-479.51 444.75,-473.51 444.75,-473.51 444.75,-461.51 444.75,-461.51 444.75,-455.51 450.75,-449.51 456.75,-449.51 456.75,-449.51 558.25,-449.51 558.25,-449.51 564.25,-449.51 570.25,-455.51 570.25,-461.51 570.25,-461.51 570.25,-473.51 570.25,-473.51 570.25,-479.51 564.25,-485.51 558.25,-485.51"/>
<text xml:space="preserve" text-anchor="middle" x="507.5" y="-461.71" font-family="Helvetica,sans-Serif" font-size="14.00">ApplicationRecord</text>
</g>
<!-- Billing::Customer&#45;&gt;ApplicationRecord -->
<g id="edge1" class="edge">
<title>Billing::Customer&#45;&gt;ApplicationRecord</title>
<path fill="none" stroke="#0f172a" stroke-width="2" d="M54.1,-353C54.18,-389.51 60.21,-470.54 109.25,-507.51 221.93,-592.46 290.92,-545.75 426.75,-507.51 440.8,-503.56 455.32,-497.09 468.05,-490.5"/>
<polygon fill="#0f172a" stroke="#0f172a" stroke-width="2" points="468.87,-492.84 473.88,-487.38 466.56,-488.52 468.87,-492.84"/>
<text xml:space="preserve" text-anchor="middle" x="326.5" y="-548.62" font-family="Helvetica,sans-Serif" font-size="14.00">inherits</text>
</g>
<!-- Auditable -->
<g id="node9" class="node">
<title>Auditable</title>
<path fill="#f8fafc" stroke="#94a3b8" d="M709.25,-138.51C709.25,-138.51 661,-138.51 661,-138.51 655,-138.51 649,-132.51 649,-126.51 649,-126.51 649,-114.51 649,-114.51 649,-108.51 655,-102.51 661,-102.51 661,-102.51 709.25,-102.51 709.25,-102.51 715.25,-102.51 721.25,-108.51 721.25,-114.51 721.25,-114.51 721.25,-126.51 721.25,-126.51 721.25,-132.51 715.25,-138.51 709.25,-138.51"/>
<text xml:space="preserve" text-anchor="middle" x="685.12" y="-114.71" font-family="Helvetica,sans-Serif" font-size="14.00">Auditable</text>
</g>
<!-- Billing::Customer&#45;&gt;Auditable -->
<g id="edge2" class="edge">
<title>Billing::Customer&#45;&gt;Auditable</title>
<path fill="none" stroke="#1d4ed8" d="M83.83,-316.33C86.64,-313.65 89.21,-310.71 91.25,-307.51 112.75,-273.87 81.48,-248.19 109.25,-219.51 162.53,-164.48 369.08,-152.38 444.75,-140.51 512.57,-129.88 592.15,-124.65 640.32,-122.27"/>
<polygon fill="#1d4ed8" stroke="#1d4ed8" points="640.26,-124.73 647.14,-121.95 640.03,-119.83 640.26,-124.73"/>
<text xml:space="preserve" text-anchor="middle" x="402" y="-150.66" font-family="Helvetica,sans-Serif" font-size="14.00">include</text>
</g>
<!-- Billing::Invoice&#45;&gt;ApplicationRecord -->
<g id="edge7" class="edge">
<title>Billing::Invoice&#45;&gt;ApplicationRecord</title>
<path fill="none" stroke="#0f172a" stroke-width="2" d="M356.12,-297.65C360.09,-300.67 363.94,-303.98 367.25,-307.51 373.24,-313.91 372.06,-317.45 377.25,-324.51 409.61,-368.59 453.32,-414.66 480.7,-442.22"/>
<polygon fill="#0f172a" stroke="#0f172a" stroke-width="2" points="478.81,-443.79 485.49,-447.01 482.28,-440.33 478.81,-443.79"/>
<text xml:space="preserve" text-anchor="middle" x="402" y="-383.64" font-family="Helvetica,sans-Serif" font-size="14.00">inherits</text>
</g>
<!-- Billing::Invoice&#45;&gt;Auditable -->
<g id="edge8" class="edge">
<title>Billing::Invoice&#45;&gt;Auditable</title>
<path fill="none" stroke="#1d4ed8" d="M356.36,-283.13C403.92,-286.11 500.42,-286.52 570.25,-249.51 615.27,-225.66 650.84,-176.33 669.58,-146.06"/>
<polygon fill="#1d4ed8" stroke="#1d4ed8" points="671.66,-147.36 673.19,-140.1 667.47,-144.82 671.66,-147.36"/>
<text xml:space="preserve" text-anchor="middle" x="507.5" y="-283.82" font-family="Helvetica,sans-Serif" font-size="14.00">include</text>
</g>
<!-- Discountable -->
<g id="node10" class="node">
<title>Discountable</title>
<path fill="#f8fafc" stroke="#94a3b8" d="M542.5,-345.51C542.5,-345.51 472.5,-345.51 472.5,-345.51 466.5,-345.51 460.5,-339.51 460.5,-333.51 460.5,-333.51 460.5,-321.51 460.5,-321.51 460.5,-315.51 466.5,-309.51 472.5,-309.51 472.5,-309.51 542.5,-309.51 542.5,-309.51 548.5,-309.51 554.5,-315.51 554.5,-321.51 554.5,-321.51 554.5,-333.51 554.5,-333.51 554.5,-339.51 548.5,-345.51 542.5,-345.51"/>
<text xml:space="preserve" text-anchor="middle" x="507.5" y="-321.71" font-family="Helvetica,sans-Serif" font-size="14.00">Discountable</text>
</g>
<!-- Billing::Invoice&#45;&gt;Discountable -->
<g id="edge9" class="edge">
<title>Billing::Invoice&#45;&gt;Discountable</title>
<path fill="none" stroke="#1d4ed8" d="M356.26,-288.06C382.04,-294.83 420.56,-304.95 452.14,-313.24"/>
<polygon fill="#1d4ed8" stroke="#1d4ed8" points="451.15,-315.51 458.54,-314.92 452.39,-310.77 451.15,-315.51"/>
<text xml:space="preserve" text-anchor="middle" x="402" y="-307.12" font-family="Helvetica,sans-Serif" font-size="14.00">include</text>
</g>
<!-- Searchable -->
<g id="node11" class="node">
<title>Searchable</title>
<path fill="#f8fafc" stroke="#94a3b8" d="M537.62,-240.51C537.62,-240.51 477.38,-240.51 477.38,-240.51 471.38,-240.51 465.38,-234.51 465.38,-228.51 465.38,-228.51 465.38,-216.51 465.38,-216.51 465.38,-210.51 471.38,-204.51 477.38,-204.51 477.38,-204.51 537.62,-204.51 537.62,-204.51 543.62,-204.51 549.62,-210.51 549.62,-216.51 549.62,-216.51 549.62,-228.51 549.62,-228.51 549.62,-234.51 543.62,-240.51 537.62,-240.51"/>
<text xml:space="preserve" text-anchor="middle" x="507.5" y="-216.71" font-family="Helvetica,sans-Serif" font-size="14.00">Searchable</text>
</g>
<!-- Billing::Invoice&#45;&gt;Searchable -->
<g id="edge11" class="edge">
<title>Billing::Invoice&#45;&gt;Searchable</title>
<path fill="none" stroke="#0f766e" stroke-dasharray="5,2" d="M354.19,-262.16C364.53,-255.18 374.54,-248.62 377.25,-247.51 402.53,-237.17 432.37,-231.04 457,-227.44"/>
<polygon fill="#0f766e" stroke="#0f766e" points="457.05,-229.9 463.64,-226.52 456.37,-225.05 457.05,-229.9"/>
<text xml:space="preserve" text-anchor="middle" x="402" y="-249.21" font-family="Helvetica,sans-Serif" font-size="14.00">extend</text>
</g>
<!-- Tracked -->
<g id="node12" class="node">
<title>Tracked</title>
<path fill="#f8fafc" stroke="#94a3b8" d="M527.88,-185.51C527.88,-185.51 487.12,-185.51 487.12,-185.51 481.12,-185.51 475.12,-179.51 475.12,-173.51 475.12,-173.51 475.12,-161.51 475.12,-161.51 475.12,-155.51 481.12,-149.51 487.12,-149.51 487.12,-149.51 527.88,-149.51 527.88,-149.51 533.88,-149.51 539.88,-155.51 539.88,-161.51 539.88,-161.51 539.88,-173.51 539.88,-173.51 539.88,-179.51 533.88,-185.51 527.88,-185.51"/>
<text xml:space="preserve" text-anchor="middle" x="507.5" y="-161.71" font-family="Helvetica,sans-Serif" font-size="14.00">Tracked</text>
</g>
<!-- Billing::Invoice&#45;&gt;Tracked -->
<g id="edge10" class="edge">
<title>Billing::Invoice&#45;&gt;Tracked</title>
<path fill="none" stroke="#9333ea" d="M356.26,-264.79C360.41,-261.51 364.28,-257.74 367.25,-253.51 377.54,-238.87 365.23,-227.77 377.25,-214.51 400.17,-189.24 437.77,-177.53 466.52,-172.13"/>
<polygon fill="#9333ea" stroke="#9333ea" points="466.79,-174.57 473.27,-170.96 465.95,-169.74 466.79,-174.57"/>
<text xml:space="preserve" text-anchor="middle" x="402" y="-216.21" font-family="Helvetica,sans-Serif" font-size="14.00">prepend</text>
</g>
<!-- Billing::LineItem -->
<g id="node4" class="node">
<title>Billing::LineItem</title>
<path fill="#f8fafc" stroke="#94a3b8" d="M75.88,-298.51C75.88,-298.51 31.38,-298.51 31.38,-298.51 25.38,-298.51 19.38,-292.51 19.38,-286.51 19.38,-286.51 19.38,-274.51 19.38,-274.51 19.38,-268.51 25.38,-262.51 31.38,-262.51 31.38,-262.51 75.88,-262.51 75.88,-262.51 81.88,-262.51 87.88,-268.51 87.88,-274.51 87.88,-274.51 87.88,-286.51 87.88,-286.51 87.88,-292.51 81.88,-298.51 75.88,-298.51"/>
<text xml:space="preserve" text-anchor="middle" x="53.62" y="-274.71" font-family="Helvetica,sans-Serif" font-size="14.00">LineItem</text>
</g>
<!-- Billing::LineItem&#45;&gt;ApplicationRecord -->
<g id="edge12" class="edge">
<title>Billing::LineItem&#45;&gt;ApplicationRecord</title>
<path fill="none" stroke="#0f172a" stroke-width="2" d="M84.43,-298.87C87.06,-301.49 89.42,-304.37 91.25,-307.51 108.05,-336.32 84.6,-434.05 109.25,-456.51 155.14,-498.34 332.9,-486.79 434.4,-476.24"/>
<polygon fill="#0f172a" stroke="#0f172a" stroke-width="2" points="434.56,-478.68 441.26,-475.51 434.05,-473.81 434.56,-478.68"/>
<text xml:space="preserve" text-anchor="middle" x="326.5" y="-487.45" font-family="Helvetica,sans-Serif" font-size="14.00">inherits</text>
</g>
<!-- Billing::LineItem&#45;&gt;Auditable -->
<g id="edge13" class="edge">
<title>Billing::LineItem&#45;&gt;Auditable</title>
<path fill="none" stroke="#1d4ed8" d="M83.69,-262.24C86.53,-259.58 89.14,-256.66 91.25,-253.51 109.61,-226.11 87.19,-206.03 109.25,-181.51 151.66,-134.37 314.81,-94.57 377.25,-83.51 470.61,-66.98 581.28,-90.89 640.9,-107.3"/>
<polygon fill="#1d4ed8" stroke="#1d4ed8" points="640.1,-109.62 647.5,-109.15 641.43,-104.9 640.1,-109.62"/>
<text xml:space="preserve" text-anchor="middle" x="402" y="-85.21" font-family="Helvetica,sans-Serif" font-size="14.00">include</text>
</g>
<!-- Billing::LineItem&#45;&gt;Searchable -->
<g id="edge14" class="edge">
<title>Billing::LineItem&#45;&gt;Searchable</title>
<path fill="none" stroke="#0f766e" stroke-dasharray="5,2" d="M82.6,-262.01C85.7,-259.36 88.67,-256.5 91.25,-253.51 102.41,-240.56 95.49,-229.66 109.25,-219.51 176.41,-169.96 210.65,-192.32 293.75,-184.51 352.64,-178.98 369.27,-175.56 426.75,-189.51 438.12,-192.27 449.96,-196.42 460.95,-200.84"/>
<polygon fill="#0f766e" stroke="#0f766e" points="459.97,-203.09 467.37,-203.52 461.85,-198.57 459.97,-203.09"/>
<text xml:space="preserve" text-anchor="middle" x="326.5" y="-186.21" font-family="Helvetica,sans-Serif" font-size="14.00">extend</text>
</g>
<!-- Billing::Payment -->
<g id="node5" class="node">
<title>Billing::Payment</title>
<path fill="#f8fafc" stroke="#94a3b8" d="M76.62,-244.51C76.62,-244.51 30.63,-244.51 30.63,-244.51 24.63,-244.51 18.62,-238.51 18.62,-232.51 18.62,-232.51 18.62,-220.51 18.62,-220.51 18.62,-214.51 24.62,-208.51 30.62,-208.51 30.62,-208.51 76.62,-208.51 76.62,-208.51 82.62,-208.51 88.62,-214.51 88.62,-220.51 88.62,-220.51 88.62,-232.51 88.62,-232.51 88.62,-238.51 82.62,-244.51 76.62,-244.51"/>
<text xml:space="preserve" text-anchor="middle" x="53.62" y="-220.71" font-family="Helvetica,sans-Serif" font-size="14.00">Payment</text>
</g>
<!-- Billing::Payment&#45;&gt;ApplicationRecord -->
<g id="edge15" class="edge">
<title>Billing::Payment&#45;&gt;ApplicationRecord</title>
<path fill="none" stroke="#0f172a" stroke-width="2" d="M84.43,-244.87C87.06,-247.49 89.42,-250.37 91.25,-253.51 124.65,-310.74 63.43,-353.65 109.25,-401.51 152.88,-447.09 332.45,-461.21 434.59,-465.57"/>
<polygon fill="#0f172a" stroke="#0f172a" stroke-width="2" points="434.41,-468.01 441.5,-465.85 434.61,-463.12 434.41,-468.01"/>
<text xml:space="preserve" text-anchor="middle" x="326.5" y="-463.41" font-family="Helvetica,sans-Serif" font-size="14.00">inherits</text>
</g>
<!-- Billing::Payment&#45;&gt;Auditable -->
<g id="edge16" class="edge">
<title>Billing::Payment&#45;&gt;Auditable</title>
<path fill="none" stroke="#1d4ed8" d="M63.79,-208.08C73.36,-190.1 89.69,-162.74 109.25,-143.51 205.07,-49.3 244.08,-21.52 377.25,-3.51 459.08,7.55 611.62,-13.7 631,-26.51 654.71,-42.19 668.97,-72.27 676.66,-94.2"/>
<polygon fill="#1d4ed8" stroke="#1d4ed8" points="674.29,-94.84 678.81,-100.72 678.94,-93.3 674.29,-94.84"/>
<text xml:space="preserve" text-anchor="middle" x="402" y="-5.21" font-family="Helvetica,sans-Serif" font-size="14.00">include</text>
</g>
<!-- Billing::Payment&#45;&gt;Tracked -->
<g id="edge17" class="edge">
<title>Billing::Payment&#45;&gt;Tracked</title>
<path fill="none" stroke="#9333ea" d="M71.55,-208.16C81.54,-198.55 95,-187.56 109.25,-181.51 230.83,-129.94 392.63,-147.65 466.58,-159.88"/>
<polygon fill="#9333ea" stroke="#9333ea" points="465.93,-162.25 473.24,-161.01 466.75,-157.42 465.93,-162.25"/>
<text xml:space="preserve" text-anchor="middle" x="326.5" y="-150.01" font-family="Helvetica,sans-Serif" font-size="14.00">prepend</text>
</g>
<!-- Discountable&#45;&gt;Auditable -->
<g id="edge18" class="edge">
<title>Discountable&#45;&gt;Auditable</title>
<path fill="none" stroke="#1d4ed8" d="M554.9,-323.97C580.41,-319.7 610.88,-310.45 631,-290.51 670.15,-251.73 680.54,-184.56 683.24,-147.32"/>
<polygon fill="#1d4ed8" stroke="#1d4ed8" points="685.67,-147.62 683.65,-140.48 680.78,-147.32 685.67,-147.62"/>
<text xml:space="preserve" text-anchor="middle" x="609.62" y="-316.72" font-family="Helvetica,sans-Serif" font-size="14.00">include</text>
</g>
</g>
</svg>
