<?xml version="1.0" encoding="UTF-8" standalone="no"?>
<!DOCTYPE svg PUBLIC "-//W3C//DTD SVG 1.1//EN"
 "http://www.w3.org/Graphics/SVG/1.1/DTD/svg11.dtd">
<!-- Generated by graphviz version 14.1.2 (20260124.0452)
 -->
<!-- Title: ruby_modules Pages: 1 -->
<svg width="484pt" height="371pt"
 viewBox="0.00 0.00 484.00 371.00" xmlns="http://www.w3.org/2000/svg" xmlns:xlink="http://www.w3.org/1999/xlink">
<g id="graph0" class="graph" transform="scale(1 1) rotate(0) translate(4 367.41)">
<title>ruby_modules</title>
<polygon fill="white" stroke="none" points="-4,4 -4,-367.41 479.5,-367.41 479.5,4 -4,4"/>
<!-- ApplicationRecord -->
<g id="node1" class="node">
<title>ApplicationRecord</title>
<path fill="#f8fafc" stroke="#94a3b8" d="M312.5,-136.33C312.5,-136.33 211,-136.33 211,-136.33 205,-136.33 199,-130.33 199,-124.33 199,-124.33 199,-112.33 199,-112.33 199,-106.33 205,-100.33 211,-100.33 211,-100.33 312.5,-100.33 312.5,-100.33 318.5,-100.33 324.5,-106.33 324.5,-112.33 324.5,-112.33 324.5,-124.33 324.5,-124.33 324.5,-130.33 318.5,-136.33 312.5,-136.33"/>
<text xml:space="preserve" text-anchor="middle" x="261.75" y="-112.53" font-family="Helvetica,sans-Serif" font-size="14.00">ApplicationRecord</text>
</g>
<!-- Auditable -->
<g id="node2" class="node">
<title>Auditable</title>
<path fill="#f8fafc" stroke="#94a3b8" d="M463.5,-229.33C463.5,-229.33 415.25,-229.33 415.25,-229.33 409.25,-229.33 403.25,-223.33 403.25,-217.33 403.25,-217.33 403.25,-205.33 403.25,-205.33 403.25,-199.33 409.25,-193.33 415.25,-193.33 415.25,-193.33 463.5,-193.33 463.5,-193.33 469.5,-193.33 475.5,-199.33 475.5,-205.33 475.5,-205.33 475.5,-217.33 475.5,-217.33 475.5,-223.33 469.5,-229.33 463.5,-229.33"/>
<text xml:space="preserve" text-anchor="middle" x="439.38" y="-205.53" font-family="Helvetica,sans-Serif" font-size="14.00">Auditable</text>
</g>
<!-- Billing::Invoice -->
<g id="node3" class="node">
<title>Billing::Invoice</title>
<path fill="#f8fafc" stroke="#94a3b8" d="M95.88,-214.33C95.88,-214.33 17.62,-214.33 17.62,-214.33 11.63,-214.33 5.62,-208.33 5.62,-202.33 5.62,-202.33 5.62,-190.33 5.62,-190.33 5.62,-184.33 11.62,-178.33 17.62,-178.33 17.62,-178.33 95.88,-178.33 95.88,-178.33 101.88,-178.33 107.88,-184.33 107.88,-190.33 107.88,-190.33 107.88,-202.33 107.88,-202.33 107.88,-208.33 101.88,-214.33 95.88,-214.33"/>
<text xml:space="preserve" text-anchor="middle" x="56.75" y="-190.53" font-family="Helvetica,sans-Serif" font-size="14.00">Billing::Invoice</text>
</g>
<!-- Billing::Invoice&#45;&gt;ApplicationRecord -->
<g id="edge1" class="edge">
<title>Billing::Invoice&#45;&gt;ApplicationRecord</title>
<path fill="none" stroke="#0f172a" stroke-width="2" d="M97.29,-177.89C108.29,-172.97 120.29,-167.78 131.5,-163.33 151.99,-155.2 174.61,-147.05 195.12,-139.96"/>
<polygon fill="#0f172a" stroke="#0f172a" stroke-width="2" points="195.69,-142.36 201.52,-137.77 194.1,-137.72 195.69,-142.36"/>
<text xml:space="preserve" text-anchor="middle" x="156.25" y="-165.03" font-family="Helvetica,sans-Serif" font-size="14.00">inherits</text>
</g>
<!-- Billing::Invoice&#45;&gt;Auditable -->
<g id="edge2" class="edge">
<title>Billing::Invoice&#45;&gt;Auditable</title>
<path fill="none" stroke="#1d4ed8" d="M108.06,-203.88C115.89,-204.84 123.9,-205.71 131.5,-206.33 224.89,-213.97 334.78,-213.47 394.43,-212.41"/>
<polygon fill="#1d4ed8" stroke="#1d4ed8" points="394.4,-214.86 401.35,-212.28 394.3,-209.96 394.4,-214.86"/>
<text xml:space="preserve" text-anchor="middle" x="261.75" y="-214.71" font-family="Helvetica,sans-Serif" font-size="14.00">include</text>
</g>
<!-- Discountable -->
<g id="node6" class="node">
<title>Discountable</title>
<path fill="#f8fafc" stroke="#94a3b8" d="M296.75,-190.33C296.75,-190.33 226.75,-190.33 226.75,-190.33 220.75,-190.33 214.75,-184.33 214.75,-178.33 214.75,-178.33 214.75,-166.33 214.75,-166.33 214.75,-160.33 220.75,-154.33 226.75,-154.33 226.75,-154.33 296.75,-154.33 296.75,-154.33 302.75,-154.33 308.75,-160.33 308.75,-166.33 308.75,-166.33 308.75,-178.33 308.75,-178.33 308.75,-184.33 302.75,-190.33 296.75,-190.33"/>
<text xml:space="preserve" text-anchor="middle" x="261.75" y="-166.53" font-family="Helvetica,sans-Serif" font-size="14.00">Discountable</text>
</g>
<!-- Billing::Invoice&#45;&gt;Discountable -->
<g id="edge3" class="edge">
<title>Billing::Invoice&#45;&gt;Discountable</title>
<path fill="none" stroke="#1d4ed8" d="M108.19,-190.37C137.92,-186.85 175.56,-182.4 206.01,-178.8"/>
<polygon fill="#1d4ed8" stroke="#1d4ed8" points="206.22,-181.24 212.89,-177.99 205.65,-176.38 206.22,-181.24"/>
<text xml:space="preserve" text-anchor="middle" x="156.25" y="-188.89" font-family="Helvetica,sans-Serif" font-size="14.00">include</text>
</g>
<!-- Searchable -->
<g id="node7" class="node">
<title>Searchable</title>
<path fill="#f8fafc" stroke="#94a3b8" d="M291.88,-312.33C291.88,-312.33 231.62,-312.33 231.62,-312.33 225.62,-312.33 219.62,-306.33 219.62,-300.33 219.62,-300.33 219.62,-288.33 219.62,-288.33 219.62,-282.33 225.62,-276.33 231.62,-276.33 231.62,-276.33 291.88,-276.33 291.88,-276.33 297.88,-276.33 303.88,-282.33 303.88,-288.33 303.88,-288.33 303.88,-300.33 303.88,-300.33 303.88,-306.33 297.88,-312.33 291.88,-312.33"/>
<text xml:space="preserve" text-anchor="middle" x="261.75" y="-288.53" font-family="Helvetica,sans-Serif" font-size="14.00">Searchable</text>
</g>
<!-- Billing::Invoice&#45;&gt;Searchable -->
<g id="edge5" class="edge">
<title>Billing::Invoice&#45;&gt;Searchable</title>
<path fill="none" stroke="#0f766e" stroke-dasharray="5,2" d="M89.35,-214.74C102.28,-222.04 117.46,-230.35 131.5,-237.33 146.38,-244.73 181.72,-260.27 211.7,-273.25"/>
<polygon fill="#0f766e" stroke="#0f766e" points="210.4,-275.36 217.8,-275.89 212.35,-270.86 210.4,-275.36"/>
<text xml:space="preserve" text-anchor="middle" x="156.25" y="-260.53" font-family="Helvetica,sans-Serif" font-size="14.00">extend</text>
</g>
<!-- Tracked -->
<g id="node8" class="node">
<title>Tracked</title>
<path fill="#f8fafc" stroke="#94a3b8" d="M282.12,-81.33C282.12,-81.33 241.38,-81.33 241.38,-81.33 235.38,-81.33 229.38,-75.33 229.38,-69.33 229.38,-69.33 229.38,-57.33 229.38,-57.33 229.38,-51.33 235.38,-45.33 241.38,-45.33 241.38,-45.33 282.12,-45.33 282.12,-45.33 288.12,-45.33 294.12,-51.33 294.12,-57.33 294.12,-57.33 294.12,-69.33 294.12,-69.33 294.12,-75.33 288.12,-81.33 282.12,-81.33"/>
<text xml:space="preserve" text-anchor="middle" x="261.75" y="-57.53" font-family="Helvetica,sans-Serif" font-size="14.00">Tracked</text>
</g>
<!-- Billing::Invoice&#45;&gt;Tracked -->
<g id="edge4" class="edge">
<title>Billing::Invoice&#45;&gt;Tracked</title>
<path fill="none" stroke="#9333ea" d="M74.4,-177.86C88.61,-162.8 110.07,-141.59 131.5,-126.33 159.03,-106.73 168.6,-106.09 199,-91.33 206.31,-87.78 214.16,-84.11 221.74,-80.64"/>
<polygon fill="#9333ea" stroke="#9333ea" points="222.45,-83.01 227.81,-77.88 220.42,-78.55 222.45,-83.01"/>
<text xml:space="preserve" text-anchor="middle" x="156.25" y="-128.03" font-family="Helvetica,sans-Serif" font-size="14.00">prepend</text>
</g>
<!-- Billing::LineItem -->
<g id="node4" class="node">
<title>Billing::LineItem</title>
<path fill="#f8fafc" stroke="#94a3b8" d="M100.75,-353.33C100.75,-353.33 12.75,-353.33 12.75,-353.33 6.75,-353.33 0.75,-347.33 0.75,-341.33 0.75,-341.33 0.75,-329.33 0.75,-329.33 0.75,-323.33 6.75,-317.33 12.75,-317.33 12.75,-317.33 100.75,-317.33 100.75,-317.33 106.75,-317.33 112.75,-323.33 112.75,-329.33 112.75,-329.33 112.75,-341.33 112.75,-341.33 112.75,-347.33 106.75,-353.33 100.75,-353.33"/>
<text xml:space="preserve" text-anchor="middle" x="56.75" y="-329.53" font-family="Helvetica,sans-Serif" font-size="14.00">Billing::LineItem</text>
</g>
<!-- Billing::LineItem&#45;&gt;ApplicationRecord -->
<g id="edge6" class="edge">
<title>Billing::LineItem&#45;&gt;ApplicationRecord</title>
<path fill="none" stroke="#0f172a" stroke-width="2" d="M88.46,-316.98C101.51,-309.52 117.03,-301.09 131.5,-294.33 152.85,-284.36 166.35,-293.79 181,-275.33 217.26,-229.64 163.79,-191.83 199,-145.33 199.46,-144.72 199.94,-144.12 200.44,-143.53"/>
<polygon fill="#0f172a" stroke="#0f172a" stroke-width="2" points="202.1,-145.34 205.48,-138.74 198.72,-141.79 202.1,-145.34"/>
<text xml:space="preserve" text-anchor="middle" x="156.25" y="-296.03" font-family="Helvetica,sans-Serif" font-size="14.00">inherits</text>
</g>
<!-- Billing::LineItem&#45;&gt;Auditable -->
<g id="edge7" class="edge">
<title>Billing::LineItem&#45;&gt;Auditable</title>
<path fill="none" stroke="#1d4ed8" d="M113.22,-344.52C169.45,-351.14 257.48,-353.98 324.5,-321.33 364.88,-301.66 400.1,-262.29 420.3,-236.38"/>
<polygon fill="#1d4ed8" stroke="#1d4ed8" points="422.13,-238.03 424.43,-230.98 418.23,-235.05 422.13,-238.03"/>
<text xml:space="preserve" text-anchor="middle" x="261.75" y="-350.11" font-family="Helvetica,sans-Serif" font-size="14.00">include</text>
</g>
<!-- Billing::LineItem&#45;&gt;Searchable -->
<g id="edge8" class="edge">
<title>Billing::LineItem&#45;&gt;Searchable</title>
<path fill="none" stroke="#0f766e" stroke-dasharray="5,2" d="M113.1,-326.15C134.38,-322.43 158.87,-317.94 181,-313.33 190.8,-311.29 201.23,-308.94 211.21,-306.6"/>
<polygon fill="#0f766e" stroke="#0f766e" points="211.74,-308.99 217.99,-304.99 210.61,-304.22 211.74,-308.99"/>
<text xml:space="preserve" text-anchor="middle" x="156.25" y="-324.18" font-family="Helvetica,sans-Serif" font-size="14.00">extend</text>
</g>
<!-- Billing::Payment -->
<g id="node5" class="node">
<title>Billing::Payment</title>
<path fill="#f8fafc" stroke="#94a3b8" d="M101.5,-62.33C101.5,-62.33 12,-62.33 12,-62.33 6,-62.33 0,-56.33 0,-50.33 0,-50.33 0,-38.33 0,-38.33 0,-32.33 6,-26.33 12,-26.33 12,-26.33 101.5,-26.33 101.5,-26.33 107.5,-26.33 113.5,-32.33 113.5,-38.33 113.5,-38.33 113.5,-50.33 113.5,-50.33 113.5,-56.33 107.5,-62.33 101.5,-62.33"/>
<text xml:space="preserve" text-anchor="middle" x="56.75" y="-38.53" font-family="Helvetica,sans-Serif" font-size="14.00">Billing::Payment</text>
</g>
<!-- Billing::Payment&#45;&gt;ApplicationRecord -->
<g id="edge9" class="edge">
<title>Billing::Payment&#45;&gt;ApplicationRecord</title>
<path fill="none" stroke="#0f172a" stroke-width="2" d="M113.71,-60.65C134.95,-67.21 159.26,-75.15 181,-83.33 191.08,-87.12 201.72,-91.51 211.83,-95.88"/>
<polygon fill="#0f172a" stroke="#0f172a" stroke-width="2" points="210.76,-98.08 218.16,-98.64 212.73,-93.59 210.76,-98.08"/>
<text xml:space="preserve" text-anchor="middle" x="156.25" y="-85.03" font-family="Helvetica,sans-Serif" font-size="14.00">inherits</text>
</g>
<!-- Billing::Payment&#45;&gt;Auditable -->
<g id="edge10" class="edge">
<title>Billing::Payment&#45;&gt;Auditable</title>
<path fill="none" stroke="#1d4ed8" d="M102.11,-25.97C157.87,-5.99 254.73,18.19 324.5,-21.33 386.92,-56.69 418.84,-141.42 431.56,-184.78"/>
<polygon fill="#1d4ed8" stroke="#1d4ed8" points="429.18,-185.35 433.44,-191.42 433.89,-184.02 429.18,-185.35"/>
<text xml:space="preserve" text-anchor="middle" x="261.75" y="-23.03" font-family="Helvetica,sans-Serif" font-size="14.00">include</text>
</g>
<!-- Billing::Payment&#45;&gt;Tracked -->
<g id="edge11" class="edge">
<title>Billing::Payment&#45;&gt;Tracked</title>
<path fill="none" stroke="#9333ea" d="M113.74,-42.26C134.88,-42.14 159.11,-42.8 181,-45.33 194.19,-46.85 208.38,-49.67 221.09,-52.62"/>
<polygon fill="#9333ea" stroke="#9333ea" points="220.35,-54.96 227.72,-54.22 221.49,-50.2 220.35,-54.96"/>
<text xml:space="preserve" text-anchor="middle" x="156.25" y="-47.03" font-family="Helvetica,sans-Serif" font-size="14.00">prepend</text>
</g>
<!-- Discountable&#45;&gt;Auditable -->
<g id="edge12" class="edge">
<title>Discountable&#45;&gt;Auditable</title>
<path fill="none" stroke="#1d4ed8" d="M309.13,-181.15C332.1,-185.69 360.2,-191.48 385.25,-197.33 388.4,-198.07 391.65,-198.85 394.91,-199.66"/>
<polygon fill="#1d4ed8" stroke="#1d4ed8" points="394.16,-202 401.54,-201.34 395.36,-197.25 394.16,-202"/>
<text xml:space="preserve" text-anchor="middle" x="363.88" y="-199.03" font-family="Helvetica,sans-Serif" font-size="14.00">include</text>
</g>
</g>
</svg>
