<?xml version="1.0" encoding="UTF-8" standalone="no"?>
<!DOCTYPE svg PUBLIC "-//W3C//DTD SVG 1.1//EN"
 "http://www.w3.org/Graphics/SVG/1.1/DTD/svg11.dtd">
<!-- Generated by graphviz version 14.1.2 (20260124.0452)
 -->
<!-- Title: ruby_modules Pages: 1 -->
<svg width="456pt" height="319pt"
 viewBox="0.00 0.00 456.00 319.00" xmlns="http://www.w3.org/2000/svg" xmlns:xlink="http://www.w3.org/1999/xlink">
<g id="graph0" class="graph" transform="scale(1 1) rotate(0) translate(4 314.78)">
<title>ruby_modules</title>
<polygon fill="white" stroke="none" points="-4,4 -4,-314.78 452,-314.78 452,4 -4,4"/>
<g id="clust1" class="cluster">
<title>cluster_Billing</title>
<path fill="#f1f5f9" stroke="#cbd5e1" d="M20,-35.87C20,-35.87 82,-35.87 82,-35.87 88,-35.87 94,-41.87 94,-47.87 94,-47.87 94,-208.87 94,-208.87 94,-214.87 88,-220.87 82,-220.87 82,-220.87 20,-220.87 20,-220.87 14,-220.87 8,-214.87 8,-208.87 8,-208.87 8,-47.87 8,-47.87 8,-41.87 14,-35.87 20,-35.87"/>
<text xml:space="preserve" text-anchor="middle" x="51" y="-203.57" font-family="Times,serif" font-size="14.00">Billing</text>
</g>
<!-- Billing::Invoice -->
<g id="node1" class="node">
<title>Billing::Invoice</title>
<path fill="#f8fafc" stroke="#94a3b8" d="M68.38,-187.87C68.38,-187.87 33.62,-187.87 33.62,-187.87 27.63,-187.87 21.62,-181.87 21.62,-175.87 21.62,-175.87 21.62,-163.87 21.62,-163.87 21.62,-157.87 27.62,-151.87 33.62,-151.87 33.62,-151.87 68.38,-151.87 68.38,-151.87 74.38,-151.87 80.38,-157.87 80.38,-163.87 80.38,-163.87 80.38,-175.87 80.38,-175.87 80.38,-181.87 74.38,-187.87 68.38,-187.87"/>
<text xml:space="preserve" text-anchor="middle" x="51" y="-164.07" font-family="Helvetica,sans-Serif" font-size="14.00">Invoice</text>
</g>
<!-- ApplicationRecord -->
<g id="node4" class="node">
<title>ApplicationRecord</title>
<path fill="#f8fafc" stroke="#94a3b8" d="M285,-91.87C285,-91.87 183.5,-91.87 183.5,-91.87 177.5,-91.87 171.5,-85.87 171.5,-79.87 171.5,-79.87 171.5,-67.87 171.5,-67.87 171.5,-61.87 177.5,-55.87 183.5,-55.87 183.5,-55.87 285,-55.87 285,-55.87 291,-55.87 297,-61.87 297,-67.87 297,-67.87 297,-79.87 297,-79.87 297,-85.87 291,-91.87 285,-91.87"/>
<text xml:space="preserve" text-anchor="middle" x="234.25" y="-68.07" font-family="Helvetica,sans-Serif" font-size="14.00">ApplicationRecord</text>
</g>
<!-- Billing::Invoice&#45;&gt;ApplicationRecord -->
<g id="edge1" class="edge">
<title>Billing::Invoice&#45;&gt;ApplicationRecord</title>
<path fill="none" stroke="#0f172a" stroke-width="2" d="M80.73,-151.96C85.23,-149 89.78,-145.9 94,-142.87 98.62,-139.54 99.17,-137.88 104,-134.87 111.51,-130.18 150.83,-111.75 184.15,-96.37"/>
<polygon fill="#0f172a" stroke="#0f172a" stroke-width="2" points="184.83,-98.75 190.17,-93.59 182.78,-94.3 184.83,-98.75"/>
<text xml:space="preserve" text-anchor="middle" x="128.75" y="-136.57" font-family="Helvetica,sans-Serif" font-size="14.00">inherits</text>
</g>
<!-- Auditable -->
<g id="node5" class="node">
<title>Auditable</title>
<path fill="#f8fafc" stroke="#94a3b8" d="M436,-158.87C436,-158.87 387.75,-158.87 387.75,-158.87 381.75,-158.87 375.75,-152.87 375.75,-146.87 375.75,-146.87 375.75,-134.87 375.75,-134.87 375.75,-128.87 381.75,-122.87 387.75,-122.87 387.75,-122.87 436,-122.87 436,-122.87 442,-122.87 448,-128.87 448,-134.87 448,-134.87 448,-146.87 448,-146.87 448,-152.87 442,-158.87 436,-158.87"/>
<text xml:space="preserve" text-anchor="middle" x="411.88" y="-135.07" font-family="Helvetica,sans-Serif" font-size="14.00">Auditable</text>
</g>
<!-- Billing::Invoice&#45;&gt;Auditable -->
<g id="edge2" class="edge">
<title>Billing::Invoice&#45;&gt;Auditable</title>
<path fill="none" stroke="#1d4ed8" d="M54.49,-188.19C59.12,-214.36 71.71,-261.72 104,-283.87 125.58,-298.66 264.06,-299.31 297,-287.87 351.86,-268.81 385.85,-203.95 401.21,-167.06"/>
<polygon fill="#1d4ed8" stroke="#1d4ed8" points="403.47,-168.02 403.81,-160.61 398.92,-166.19 403.47,-168.02"/>
<text xml:space="preserve" text-anchor="middle" x="234.25" y="-297.48" font-family="Helvetica,sans-Serif" font-size="14.00">include</text>
</g>
<!-- Discountable -->
<g id="node6" class="node">
<title>Discountable</title>
<path fill="#f8fafc" stroke="#94a3b8" d="M269.25,-278.87C269.25,-278.87 199.25,-278.87 199.25,-278.87 193.25,-278.87 187.25,-272.87 187.25,-266.87 187.25,-266.87 187.25,-254.87 187.25,-254.87 187.25,-248.87 193.25,-242.87 199.25,-242.87 199.25,-242.87 269.25,-242.87 269.25,-242.87 275.25,-242.87 281.25,-248.87 281.25,-254.87 281.25,-254.87 281.25,-266.87 281.25,-266.87 281.25,-272.87 275.25,-278.87 269.25,-278.87"/>
<text xml:space="preserve" text-anchor="middle" x="234.25" y="-255.07" font-family="Helvetica,sans-Serif" font-size="14.00">Discountable</text>
</g>
<!-- Billing::Invoice&#45;&gt;Discountable -->
<g id="edge3" class="edge">
<title>Billing::Invoice&#45;&gt;Discountable</title>
<path fill="none" stroke="#1d4ed8" d="M58.29,-188.03C65.91,-207 80.69,-235.91 104,-249.87 126.03,-263.06 154.09,-266.69 178.43,-266.64"/>
<polygon fill="#1d4ed8" stroke="#1d4ed8" points="178.4,-269.09 185.35,-266.51 178.31,-264.2 178.4,-269.09"/>
<text xml:space="preserve" text-anchor="middle" x="128.75" y="-266.57" font-family="Helvetica,sans-Serif" font-size="14.00">include</text>
</g>
<!-- Searchable -->
<g id="node7" class="node">
<title>Searchable</title>
<path fill="#f8fafc" stroke="#94a3b8" d="M264.38,-224.87C264.38,-224.87 204.12,-224.87 204.12,-224.87 198.12,-224.87 192.12,-218.87 192.12,-212.87 192.12,-212.87 192.12,-200.87 192.12,-200.87 192.12,-194.87 198.12,-188.87 204.12,-188.87 204.12,-188.87 264.38,-188.87 264.38,-188.87 270.38,-188.87 276.38,-194.87 276.38,-200.87 276.38,-200.87 276.38,-212.87 276.38,-212.87 276.38,-218.87 270.38,-224.87 264.38,-224.87"/>
<text xml:space="preserve" text-anchor="middle" x="234.25" y="-201.07" font-family="Helvetica,sans-Serif" font-size="14.00">Searchable</text>
</g>
<!-- Billing::Invoice&#45;&gt;Searchable -->
<g id="edge5" class="edge">
<title>Billing::Invoice&#45;&gt;Searchable</title>
<path fill="none" stroke="#0f766e" stroke-dasharray="5,2" d="M63.63,-188.15C72.85,-200.81 86.99,-216.63 104,-223.87 128.98,-234.49 158.92,-231.43 183.7,-225.17"/>
<polygon fill="#0f766e" stroke="#0f766e" points="184.32,-227.54 190.43,-223.34 183.03,-222.81 184.32,-227.54"/>
<text xml:space="preserve" text-anchor="middle" x="128.75" y="-232.56" font-family="Helvetica,sans-Serif" font-size="14.00">extend</text>
</g>
<!-- Tracked -->
<g id="node8" class="node">
<title>Tracked</title>
<path fill="#f8fafc" stroke="#94a3b8" d="M254.62,-158.87C254.62,-158.87 213.88,-158.87 213.88,-158.87 207.88,-158.87 201.88,-152.87 201.88,-146.87 201.88,-146.87 201.88,-134.87 201.88,-134.87 201.88,-128.87 207.88,-122.87 213.88,-122.87 213.88,-122.87 254.62,-122.87 254.62,-122.87 260.62,-122.87 266.62,-128.87 266.62,-134.87 266.62,-134.87 266.62,-146.87 266.62,-146.87 266.62,-152.87 260.62,-158.87 254.62,-158.87"/>
<text xml:space="preserve" text-anchor="middle" x="234.25" y="-135.07" font-family="Helvetica,sans-Serif" font-size="14.00">Tracked</text>
</g>
<!-- Billing::Invoice&#45;&gt;Tracked -->
<g id="edge4" class="edge">
<title>Billing::Invoice&#45;&gt;Tracked</title>
<path fill="none" stroke="#9333ea" d="M80.72,-165.27C111.09,-160.41 159.22,-152.71 193.28,-147.26"/>
<polygon fill="#9333ea" stroke="#9333ea" points="193.6,-149.69 200.12,-146.17 192.83,-144.85 193.6,-149.69"/>
<text xml:space="preserve" text-anchor="middle" x="128.75" y="-163" font-family="Helvetica,sans-Serif" font-size="14.00">prepend</text>
</g>
<!-- Billing::LineItem -->
<g id="node2" class="node">
<title>Billing::LineItem</title>
<path fill="#f8fafc" stroke="#94a3b8" d="M73.25,-133.87C73.25,-133.87 28.75,-133.87 28.75,-133.87 22.75,-133.87 16.75,-127.87 16.75,-121.87 16.75,-121.87 16.75,-109.87 16.75,-109.87 16.75,-103.87 22.75,-97.87 28.75,-97.87 28.75,-97.87 73.25,-97.87 73.25,-97.87 79.25,-97.87 85.25,-103.87 85.25,-109.87 85.25,-109.87 85.25,-121.87 85.25,-121.87 85.25,-127.87 79.25,-133.87 73.25,-133.87"/>
<text xml:space="preserve" text-anchor="middle" x="51" y="-110.07" font-family="Helvetica,sans-Serif" font-size="14.00">LineItem</text>
</g>
<!-- Billing::LineItem&#45;&gt;ApplicationRecord -->
<g id="edge6" class="edge">
<title>Billing::LineItem&#45;&gt;ApplicationRecord</title>
<path fill="none" stroke="#0f172a" stroke-width="2" d="M85.54,-97.57C88.68,-94.94 91.58,-92.04 94,-88.87 103.03,-77.01 91.99,-65.69 104,-56.87 127.06,-39.91 158.88,-43.86 185.18,-52.19"/>
<polygon fill="#0f172a" stroke="#0f172a" stroke-width="2" points="184.31,-54.48 191.73,-54.44 185.91,-49.85 184.31,-54.48"/>
<text xml:space="preserve" text-anchor="middle" x="128.75" y="-58.57" font-family="Helvetica,sans-Serif" font-size="14.00">inherits</text>
</g>
<!-- Billing::LineItem&#45;&gt;Auditable -->
<g id="edge7" class="edge">
<title>Billing::LineItem&#45;&gt;Auditable</title>
<path fill="none" stroke="#1d4ed8" d="M85.45,-98.15C88.69,-95.39 91.64,-92.29 94,-88.87 106.35,-70.91 88.04,-55.7 104,-40.87 130.03,-16.66 274.82,-22.96 297,-31.87 338.96,-48.71 374.2,-89.22 393.91,-115.83"/>
<polygon fill="#1d4ed8" stroke="#1d4ed8" points="391.83,-117.14 397.92,-121.38 395.8,-114.27 391.83,-117.14"/>
<text xml:space="preserve" text-anchor="middle" x="234.25" y="-33.57" font-family="Helvetica,sans-Serif" font-size="14.00">include</text>
</g>
<!-- Billing::LineItem&#45;&gt;Searchable -->
<g id="edge8" class="edge">
<title>Billing::LineItem&#45;&gt;Searchable</title>
<path fill="none" stroke="#0f766e" stroke-dasharray="5,2" d="M85.67,-134.07C88.78,-136.71 91.65,-139.65 94,-142.87 104.06,-156.61 91.61,-168.18 104,-179.87 124.99,-199.67 156.58,-206.53 183.28,-208.38"/>
<polygon fill="#0f766e" stroke="#0f766e" points="183.13,-210.82 190.25,-208.74 183.38,-205.93 183.13,-210.82"/>
<text xml:space="preserve" text-anchor="middle" x="128.75" y="-205.16" font-family="Helvetica,sans-Serif" font-size="14.00">extend</text>
</g>
<!-- Billing::Payment -->
<g id="node3" class="node">
<title>Billing::Payment</title>
<path fill="#f8fafc" stroke="#94a3b8" d="M74,-79.87C74,-79.87 28,-79.87 28,-79.87 22,-79.87 16,-73.87 16,-67.87 16,-67.87 16,-55.87 16,-55.87 16,-49.87 22,-43.87 28,-43.87 28,-43.87 74,-43.87 74,-43.87 80,-43.87 86,-49.87 86,-55.87 86,-55.87 86,-67.87 86,-67.87 86,-73.87 80,-79.87 74,-79.87"/>
<text xml:space="preserve" text-anchor="middle" x="51" y="-56.07" font-family="Helvetica,sans-Serif" font-size="14.00">Payment</text>
</g>
<!-- Billing::Payment&#45;&gt;ApplicationRecord -->
<g id="edge9" class="edge">
<title>Billing::Payment&#45;&gt;ApplicationRecord</title>
<path fill="none" stroke="#0f172a" stroke-width="2" d="M67.87,-43.73C77.3,-34.36 90.11,-23.86 104,-18.87 124.7,-11.42 133.72,-9.23 153.5,-18.87 165.17,-24.55 161.51,-33.58 171.5,-41.87 175.09,-44.84 179,-47.65 183.05,-50.27"/>
<polygon fill="#0f172a" stroke="#0f172a" stroke-width="2" points="181.66,-52.29 188.92,-53.81 184.19,-48.09 181.66,-52.29"/>
<text xml:space="preserve" text-anchor="middle" x="128.75" y="-20.57" font-family="Helvetica,sans-Serif" font-size="14.00">inherits</text>
</g>
<!-- Billing::Payment&#45;&gt;Auditable -->
<g id="edge10" class="edge">
<title>Billing::Payment&#45;&gt;Auditable</title>
<path fill="none" stroke="#1d4ed8" d="M64.44,-43.42C73.76,-31.27 87.69,-16.29 104,-8.87 130.14,3.03 272.52,1.19 297,-4.87 326.62,-12.19 336.31,-15.15 357.75,-36.87 379.57,-58.96 394.3,-91.86 402.61,-114.71"/>
<polygon fill="#1d4ed8" stroke="#1d4ed8" points="400.26,-115.41 404.88,-121.21 404.89,-113.79 400.26,-115.41"/>
<text xml:space="preserve" text-anchor="middle" x="234.25" y="-6.57" font-family="Helvetica,sans-Serif" font-size="14.00">include</text>
</g>
<!-- Billing::Payment&#45;&gt;Tracked -->
<g id="edge11" class="edge">
<title>Billing::Payment&#45;&gt;Tracked</title>
<path fill="none" stroke="#9333ea" d="M86.5,-71.13C106.46,-76.97 131.83,-85.22 153.5,-94.87 168.41,-101.5 184.11,-110.16 197.6,-118.17"/>
<polygon fill="#9333ea" stroke="#9333ea" points="196.29,-120.25 203.55,-121.76 198.82,-116.05 196.29,-120.25"/>
<text xml:space="preserve" text-anchor="middle" x="128.75" y="-96.57" font-family="Helvetica,sans-Serif" font-size="14.00">prepend</text>
</g>
<!-- Discountable&#45;&gt;Auditable -->
<g id="edge12" class="edge">
<title>Discountable&#45;&gt;Auditable</title>
<path fill="none" stroke="#1d4ed8" d="M281.16,-242.48C286.61,-239.81 292.01,-236.92 297,-233.87 329.91,-213.76 363.64,-184.99 385.76,-164.79"/>
<polygon fill="#1d4ed8" stroke="#1d4ed8" points="387.36,-166.65 390.84,-160.1 384.03,-163.04 387.36,-166.65"/>
<text xml:space="preserve" text-anchor="middle" x="336.38" y="-222.37" font-family="Helvetica,sans-Serif" font-size="14.00">include</text>
</g>
</g>
</svg>
